<svg xmlns="http://www.w3.org/2000/svg" viewBox="0 0 32 32" shape-rendering="crispEdges">
  <path d="M3 15 7 12 6 7 11 8 14 3 18 7 24 5 25 11 30 14 26 18 27 24 21 23 17 29 13 24 7 26 8 20Z" fill="#170202" opacity=".82"/>
  <path d="M4 14 8 11 7 7 12 8 15 4 18 8 23 6 24 11 29 14 25 17 26 22 21 22 17 27 14 23 8 25 9 20Z" fill="#5c0503"/>
  <path d="M7 15 10 12 10 10 13 10 16 7 18 10 22 9 22 13 26 15 23 18 24 21 20 20 17 24 14 20 10 22 11 18Z" fill="#b50e08"/>
  <path d="M10 15 13 12 16 11 20 12 22 15 21 18 18 20 14 20 11 18Z" fill="#f04a18"/>
  <path d="M9 14H7v2h2Zm16 1h-2v2h2ZM13 8h2v2h-2Zm5 13h2v2h-2Z" fill="#ffb23f"/>
  <path d="M11 19H9v2h2Zm12-8h-2v2h2ZM16 5h2v2h-2Z" fill="#2a0201"/>
</svg>
