{
	"asset":{
		"generator":"Khronos glTF Blender I/O v5.1.20",
		"version":"2.0"
	},
	"extensionsUsed":[
		"KHR_materials_specular"
	],
	"scene":0,
	"scenes":[
		{
			"name":"Bought Assets Rework Preview",
			"nodes":[
				0
			]
		},
		{
			"name":"Scene"
		},
		{
			"name":"Slab Variant Preview"
		}
	],
	"nodes":[
		{
			"mesh":0,
			"name":"Chair_1.001",
			"rotation":[
				0.70710688829422,
				0,
				0,
				0.7071066498756409
			],
			"translation":[
				1.2076606750488281,
				0.6761636734008789,
				-16.830894470214844
			]
		}
	],
	"materials":[
		{
			"doubleSided":true,
			"extensions":{
				"KHR_materials_specular":{
					"specularFactor":0.23999999463558197
				}
			},
			"name":"EQ_ProjectTex_wood_planks",
			"pbrMetallicRoughness":{
				"baseColorTexture":{
					"index":0
				},
				"metallicFactor":0,
				"roughnessFactor":0.9599999785423279
			}
		}
	],
	"meshes":[
		{
			"name":"Cube.102",
			"primitives":[
				{
					"attributes":{
						"POSITION":0,
						"NORMAL":1,
						"TEXCOORD_0":2
					},
					"indices":3,
					"material":0
				},
				{
					"attributes":{
						"POSITION":4,
						"NORMAL":5,
						"TEXCOORD_0":6
					},
					"indices":7,
					"material":0
				},
				{
					"attributes":{
						"POSITION":8,
						"NORMAL":9,
						"TEXCOORD_0":10
					},
					"indices":11,
					"material":0
				},
				{
					"attributes":{
						"POSITION":12,
						"NORMAL":13,
						"TEXCOORD_0":14
					},
					"indices":15,
					"material":0
				}
			]
		}
	],
	"textures":[
		{
			"sampler":0,
			"source":0
		}
	],
	"images":[
		{
			"mimeType":"image/png",
			"name":"eq_project_wood_planks.png",
			"uri":"evilquest-shared-textures/eq_project_wood_planks.png"
		}
	],
	"accessors":[
		{
			"bufferView":0,
			"componentType":5126,
			"count":106,
			"max":[
				1,
				1.2067334651947021,
				2.6524736881256104
			],
			"min":[
				-1,
				-1.0294983386993408,
				-3.0723214149475098
			],
			"type":"VEC3"
		},
		{
			"bufferView":1,
			"componentType":5126,
			"count":106,
			"type":"VEC3"
		},
		{
			"bufferView":2,
			"componentType":5126,
			"count":106,
			"type":"VEC2"
		},
		{
			"bufferView":3,
			"componentType":5123,
			"count":159,
			"type":"SCALAR"
		},
		{
			"bufferView":4,
			"componentType":5126,
			"count":161,
			"max":[
				1,
				1.2067334651947021,
				2.6524736881256104
			],
			"min":[
				-1,
				-1.0294983386993408,
				-3.1934874057769775
			],
			"type":"VEC3"
		},
		{
			"bufferView":5,
			"componentType":5126,
			"count":161,
			"type":"VEC3"
		},
		{
			"bufferView":6,
			"componentType":5126,
			"count":161,
			"type":"VEC2"
		},
		{
			"bufferView":7,
			"componentType":5123,
			"count":333,
			"type":"SCALAR"
		},
		{
			"bufferView":8,
			"componentType":5126,
			"count":54,
			"max":[
				1,
				1.2067334651947021,
				2.6524736881256104
			],
			"min":[
				-1,
				-0.7489554286003113,
				-3.1934874057769775
			],
			"type":"VEC3"
		},
		{
			"bufferView":9,
			"componentType":5126,
			"count":54,
			"type":"VEC3"
		},
		{
			"bufferView":10,
			"componentType":5126,
			"count":54,
			"type":"VEC2"
		},
		{
			"bufferView":11,
			"componentType":5123,
			"count":117,
			"type":"SCALAR"
		},
		{
			"bufferView":12,
			"componentType":5126,
			"count":3,
			"max":[
				-4.87991247410946e-09,
				1.0629942417144775,
				0.748245358467102
			],
			"min":[
				-0.7142857313156128,
				1.0629942417144775,
				0.45163750648498535
			],
			"type":"VEC3"
		},
		{
			"bufferView":13,
			"componentType":5126,
			"count":3,
			"type":"VEC3"
		},
		{
			"bufferView":14,
			"componentType":5126,
			"count":3,
			"type":"VEC2"
		},
		{
			"bufferView":15,
			"componentType":5123,
			"count":3,
			"type":"SCALAR"
		}
	],
	"bufferViews":[
		{
			"buffer":0,
			"byteLength":1272,
			"byteOffset":0,
			"target":34962
		},
		{
			"buffer":0,
			"byteLength":1272,
			"byteOffset":1272,
			"target":34962
		},
		{
			"buffer":0,
			"byteLength":848,
			"byteOffset":2544,
			"target":34962
		},
		{
			"buffer":0,
			"byteLength":318,
			"byteOffset":3392,
			"target":34963
		},
		{
			"buffer":0,
			"byteLength":1932,
			"byteOffset":3712,
			"target":34962
		},
		{
			"buffer":0,
			"byteLength":1932,
			"byteOffset":5644,
			"target":34962
		},
		{
			"buffer":0,
			"byteLength":1288,
			"byteOffset":7576,
			"target":34962
		},
		{
			"buffer":0,
			"byteLength":666,
			"byteOffset":8864,
			"target":34963
		},
		{
			"buffer":0,
			"byteLength":648,
			"byteOffset":9532,
			"target":34962
		},
		{
			"buffer":0,
			"byteLength":648,
			"byteOffset":10180,
			"target":34962
		},
		{
			"buffer":0,
			"byteLength":432,
			"byteOffset":10828,
			"target":34962
		},
		{
			"buffer":0,
			"byteLength":234,
			"byteOffset":11260,
			"target":34963
		},
		{
			"buffer":0,
			"byteLength":36,
			"byteOffset":11496,
			"target":34962
		},
		{
			"buffer":0,
			"byteLength":36,
			"byteOffset":11532,
			"target":34962
		},
		{
			"buffer":0,
			"byteLength":24,
			"byteOffset":11568,
			"target":34962
		},
		{
			"buffer":0,
			"byteLength":6,
			"byteOffset":11592,
			"target":34963
		}
	],
	"samplers":[
		{
			"magFilter":9729,
			"minFilter":9987
		}
	],
	"buffers":[
		{
			"byteLength":11600,
			"uri":"Chair_1.bin"
		}
	]
}
