{
	"asset":{
		"generator":"Khronos glTF Blender I/O v5.1.20",
		"version":"2.0"
	},
	"extensionsUsed":[
		"KHR_materials_specular"
	],
	"scene":0,
	"scenes":[
		{
			"name":"Bought Assets Rework Preview",
			"nodes":[
				0
			]
		},
		{
			"name":"Scene"
		},
		{
			"name":"Slab Variant Preview"
		}
	],
	"nodes":[
		{
			"mesh":0,
			"name":"Chair_3.001",
			"rotation":[
				0.70710688829422,
				0,
				0,
				0.7071066498756409
			],
			"translation":[
				9.284645080566406,
				0.07622241973876953,
				-16.860393524169922
			]
		}
	],
	"materials":[
		{
			"doubleSided":true,
			"extensions":{
				"KHR_materials_specular":{
					"specularFactor":0.23999999463558197
				}
			},
			"name":"EQ_ProjectTex_wood_planks",
			"pbrMetallicRoughness":{
				"baseColorTexture":{
					"index":0
				},
				"metallicFactor":0,
				"roughnessFactor":0.9599999785423279
			}
		}
	],
	"meshes":[
		{
			"name":"Cube.106",
			"primitives":[
				{
					"attributes":{
						"POSITION":0,
						"NORMAL":1,
						"TEXCOORD_0":2
					},
					"indices":3,
					"material":0
				},
				{
					"attributes":{
						"POSITION":4,
						"NORMAL":5,
						"TEXCOORD_0":6
					},
					"indices":7,
					"material":0
				},
				{
					"attributes":{
						"POSITION":8,
						"NORMAL":9,
						"TEXCOORD_0":10
					},
					"indices":11,
					"material":0
				}
			]
		}
	],
	"textures":[
		{
			"sampler":0,
			"source":0
		}
	],
	"images":[
		{
			"mimeType":"image/png",
			"name":"eq_project_wood_planks.png",
			"uri":"evilquest-shared-textures/eq_project_wood_planks.png"
		}
	],
	"accessors":[
		{
			"bufferView":0,
			"componentType":5126,
			"count":143,
			"max":[
				1,
				1.0924925804138184,
				2.052532196044922
			],
			"min":[
				-1,
				-1.000000238418579,
				-4.443296432495117
			],
			"type":"VEC3"
		},
		{
			"bufferView":1,
			"componentType":5126,
			"count":143,
			"type":"VEC3"
		},
		{
			"bufferView":2,
			"componentType":5126,
			"count":143,
			"type":"VEC2"
		},
		{
			"bufferView":3,
			"componentType":5123,
			"count":345,
			"type":"SCALAR"
		},
		{
			"bufferView":4,
			"componentType":5126,
			"count":39,
			"max":[
				1,
				1.0924925804138184,
				2.052532196044922
			],
			"min":[
				-1,
				-0.9999998807907104,
				-4.443296432495117
			],
			"type":"VEC3"
		},
		{
			"bufferView":5,
			"componentType":5126,
			"count":39,
			"type":"VEC3"
		},
		{
			"bufferView":6,
			"componentType":5126,
			"count":39,
			"type":"VEC2"
		},
		{
			"bufferView":7,
			"componentType":5123,
			"count":63,
			"type":"SCALAR"
		},
		{
			"bufferView":8,
			"componentType":5126,
			"count":28,
			"max":[
				1,
				1.0924925804138184,
				2.052532196044922
			],
			"min":[
				-1,
				-0.71945720911026,
				-4.443296432495117
			],
			"type":"VEC3"
		},
		{
			"bufferView":9,
			"componentType":5126,
			"count":28,
			"type":"VEC3"
		},
		{
			"bufferView":10,
			"componentType":5126,
			"count":28,
			"type":"VEC2"
		},
		{
			"bufferView":11,
			"componentType":5123,
			"count":48,
			"type":"SCALAR"
		}
	],
	"bufferViews":[
		{
			"buffer":0,
			"byteLength":1716,
			"byteOffset":0,
			"target":34962
		},
		{
			"buffer":0,
			"byteLength":1716,
			"byteOffset":1716,
			"target":34962
		},
		{
			"buffer":0,
			"byteLength":1144,
			"byteOffset":3432,
			"target":34962
		},
		{
			"buffer":0,
			"byteLength":690,
			"byteOffset":4576,
			"target":34963
		},
		{
			"buffer":0,
			"byteLength":468,
			"byteOffset":5268,
			"target":34962
		},
		{
			"buffer":0,
			"byteLength":468,
			"byteOffset":5736,
			"target":34962
		},
		{
			"buffer":0,
			"byteLength":312,
			"byteOffset":6204,
			"target":34962
		},
		{
			"buffer":0,
			"byteLength":126,
			"byteOffset":6516,
			"target":34963
		},
		{
			"buffer":0,
			"byteLength":336,
			"byteOffset":6644,
			"target":34962
		},
		{
			"buffer":0,
			"byteLength":336,
			"byteOffset":6980,
			"target":34962
		},
		{
			"buffer":0,
			"byteLength":224,
			"byteOffset":7316,
			"target":34962
		},
		{
			"buffer":0,
			"byteLength":96,
			"byteOffset":7540,
			"target":34963
		}
	],
	"samplers":[
		{
			"magFilter":9729,
			"minFilter":9987
		}
	],
	"buffers":[
		{
			"byteLength":7636,
			"uri":"Chair_3.bin"
		}
	]
}
