{
	"asset":{
		"generator":"Khronos glTF Blender I/O v5.1.20",
		"version":"2.0"
	},
	"extensionsUsed":[
		"KHR_materials_specular"
	],
	"scene":0,
	"scenes":[
		{
			"name":"Bought Assets Rework Preview",
			"nodes":[
				0
			]
		},
		{
			"name":"Scene"
		},
		{
			"name":"Slab Variant Preview"
		}
	],
	"nodes":[
		{
			"mesh":0,
			"name":"Coffin.001",
			"rotation":[
				0.70710688829422,
				0,
				0,
				0.7071066498756409
			],
			"translation":[
				25.237945556640625,
				0.2287149429321289,
				1.0147604942321777
			]
		}
	],
	"materials":[
		{
			"doubleSided":true,
			"extensions":{
				"KHR_materials_specular":{
					"specularFactor":0.23999999463558197
				}
			},
			"name":"EQ_ProjectTex_darkwood",
			"pbrMetallicRoughness":{
				"baseColorTexture":{
					"index":0
				},
				"metallicFactor":0,
				"roughnessFactor":0.9599999785423279
			}
		}
	],
	"meshes":[
		{
			"name":"Cube.108",
			"primitives":[
				{
					"attributes":{
						"POSITION":0,
						"NORMAL":1,
						"TEXCOORD_0":2
					},
					"indices":3,
					"material":0
				},
				{
					"attributes":{
						"POSITION":4,
						"NORMAL":5,
						"TEXCOORD_0":6
					},
					"indices":7,
					"material":0
				}
			]
		}
	],
	"textures":[
		{
			"sampler":0,
			"source":0
		}
	],
	"images":[
		{
			"mimeType":"image/png",
			"name":"eq_project_darkwood.png",
			"uri":"evilquest-shared-textures/eq_project_darkwood.png"
		}
	],
	"accessors":[
		{
			"bufferView":0,
			"componentType":5126,
			"count":64,
			"max":[
				1.562659740447998,
				3.443248987197876,
				0.7333372235298157
			],
			"min":[
				-1.562659740447998,
				-4.520634174346924,
				-0.6351768970489502
			],
			"type":"VEC3"
		},
		{
			"bufferView":1,
			"componentType":5126,
			"count":64,
			"type":"VEC3"
		},
		{
			"bufferView":2,
			"componentType":5126,
			"count":64,
			"type":"VEC2"
		},
		{
			"bufferView":3,
			"componentType":5123,
			"count":120,
			"type":"SCALAR"
		},
		{
			"bufferView":4,
			"componentType":5126,
			"count":8,
			"max":[
				0.8843073844909668,
				3.443248987197876,
				0.733336865901947
			],
			"min":[
				-0.8843073844909668,
				-4.202977180480957,
				-0.6351768970489502
			],
			"type":"VEC3"
		},
		{
			"bufferView":5,
			"componentType":5126,
			"count":8,
			"type":"VEC3"
		},
		{
			"bufferView":6,
			"componentType":5126,
			"count":8,
			"type":"VEC2"
		},
		{
			"bufferView":7,
			"componentType":5123,
			"count":12,
			"type":"SCALAR"
		}
	],
	"bufferViews":[
		{
			"buffer":0,
			"byteLength":768,
			"byteOffset":0,
			"target":34962
		},
		{
			"buffer":0,
			"byteLength":768,
			"byteOffset":768,
			"target":34962
		},
		{
			"buffer":0,
			"byteLength":512,
			"byteOffset":1536,
			"target":34962
		},
		{
			"buffer":0,
			"byteLength":240,
			"byteOffset":2048,
			"target":34963
		},
		{
			"buffer":0,
			"byteLength":96,
			"byteOffset":2288,
			"target":34962
		},
		{
			"buffer":0,
			"byteLength":96,
			"byteOffset":2384,
			"target":34962
		},
		{
			"buffer":0,
			"byteLength":64,
			"byteOffset":2480,
			"target":34962
		},
		{
			"buffer":0,
			"byteLength":24,
			"byteOffset":2544,
			"target":34963
		}
	],
	"samplers":[
		{
			"magFilter":9729,
			"minFilter":9987
		}
	],
	"buffers":[
		{
			"byteLength":2568,
			"uri":"Coffin.bin"
		}
	]
}
