{
	"asset":{
		"generator":"Khronos glTF Blender I/O v5.1.20",
		"version":"2.0"
	},
	"extensionsUsed":[
		"KHR_materials_specular"
	],
	"scene":0,
	"scenes":[
		{
			"name":"Bought Assets Rework Preview",
			"nodes":[
				0
			]
		},
		{
			"name":"Scene"
		},
		{
			"name":"Slab Variant Preview"
		}
	],
	"nodes":[
		{
			"mesh":0,
			"name":"Coffin_Door.001",
			"rotation":[
				0.70710688829422,
				0,
				0,
				0.7071066498756409
			],
			"translation":[
				29.026962280273438,
				0.9657454490661621,
				1.047558307647705
			]
		}
	],
	"materials":[
		{
			"doubleSided":true,
			"extensions":{
				"KHR_materials_specular":{
					"specularFactor":0.23999999463558197
				}
			},
			"name":"EQ_ProjectTex_darkwood",
			"pbrMetallicRoughness":{
				"baseColorTexture":{
					"index":0
				},
				"metallicFactor":0,
				"roughnessFactor":0.9599999785423279
			}
		}
	],
	"meshes":[
		{
			"name":"Cube.111",
			"primitives":[
				{
					"attributes":{
						"POSITION":0,
						"NORMAL":1,
						"TEXCOORD_0":2
					},
					"indices":3,
					"material":0
				},
				{
					"attributes":{
						"POSITION":4,
						"NORMAL":5,
						"TEXCOORD_0":6
					},
					"indices":7,
					"material":0
				}
			]
		}
	],
	"textures":[
		{
			"sampler":0,
			"source":0
		}
	],
	"images":[
		{
			"mimeType":"image/png",
			"name":"eq_project_darkwood.png",
			"uri":"evilquest-shared-textures/eq_project_darkwood.png"
		}
	],
	"accessors":[
		{
			"bufferView":0,
			"componentType":5126,
			"count":32,
			"max":[
				1.562659740447998,
				3.4483375549316406,
				0.09549350291490555
			],
			"min":[
				-1.562659740447998,
				-4.515545845031738,
				-0.09549342095851898
			],
			"type":"VEC3"
		},
		{
			"bufferView":1,
			"componentType":5126,
			"count":32,
			"type":"VEC3"
		},
		{
			"bufferView":2,
			"componentType":5126,
			"count":32,
			"type":"VEC2"
		},
		{
			"bufferView":3,
			"componentType":5123,
			"count":54,
			"type":"SCALAR"
		},
		{
			"bufferView":4,
			"componentType":5126,
			"count":4,
			"max":[
				0.8843072652816772,
				3.4483375549316406,
				0.09549309313297272
			],
			"min":[
				-0.8843074440956116,
				3.4483375549316406,
				-0.09549342095851898
			],
			"type":"VEC3"
		},
		{
			"bufferView":5,
			"componentType":5126,
			"count":4,
			"type":"VEC3"
		},
		{
			"bufferView":6,
			"componentType":5126,
			"count":4,
			"type":"VEC2"
		},
		{
			"bufferView":7,
			"componentType":5123,
			"count":6,
			"type":"SCALAR"
		}
	],
	"bufferViews":[
		{
			"buffer":0,
			"byteLength":384,
			"byteOffset":0,
			"target":34962
		},
		{
			"buffer":0,
			"byteLength":384,
			"byteOffset":384,
			"target":34962
		},
		{
			"buffer":0,
			"byteLength":256,
			"byteOffset":768,
			"target":34962
		},
		{
			"buffer":0,
			"byteLength":108,
			"byteOffset":1024,
			"target":34963
		},
		{
			"buffer":0,
			"byteLength":48,
			"byteOffset":1132,
			"target":34962
		},
		{
			"buffer":0,
			"byteLength":48,
			"byteOffset":1180,
			"target":34962
		},
		{
			"buffer":0,
			"byteLength":32,
			"byteOffset":1228,
			"target":34962
		},
		{
			"buffer":0,
			"byteLength":12,
			"byteOffset":1260,
			"target":34963
		}
	],
	"samplers":[
		{
			"magFilter":9729,
			"minFilter":9987
		}
	],
	"buffers":[
		{
			"byteLength":1272,
			"uri":"Coffin_Door.bin"
		}
	]
}
