{
	"asset":{
		"generator":"Khronos glTF Blender I/O v5.1.20",
		"version":"2.0"
	},
	"extensionsUsed":[
		"KHR_materials_specular"
	],
	"scene":0,
	"scenes":[
		{
			"name":"Bought Assets Rework Preview",
			"nodes":[
				0
			]
		},
		{
			"name":"Scene"
		},
		{
			"name":"Slab Variant Preview"
		}
	],
	"nodes":[
		{
			"mesh":0,
			"name":"Gate_Variant_2.001",
			"translation":[
				0.3433074951171875,
				7.1717915534973145,
				53.685245513916016
			]
		}
	],
	"materials":[
		{
			"doubleSided":true,
			"extensions":{
				"KHR_materials_specular":{
					"specularFactor":0.23999999463558197
				}
			},
			"name":"EQ_ProjectTex_metal_warm",
			"pbrMetallicRoughness":{
				"baseColorTexture":{
					"index":0
				},
				"metallicFactor":0,
				"roughnessFactor":0.9599999785423279
			}
		}
	],
	"meshes":[
		{
			"name":"Cube.112",
			"primitives":[
				{
					"attributes":{
						"POSITION":0,
						"NORMAL":1,
						"TEXCOORD_0":2
					},
					"indices":3,
					"material":0
				},
				{
					"attributes":{
						"POSITION":4,
						"NORMAL":5,
						"TEXCOORD_0":6
					},
					"indices":7,
					"material":0
				},
				{
					"attributes":{
						"POSITION":8,
						"NORMAL":9,
						"TEXCOORD_0":10
					},
					"indices":11,
					"material":0
				}
			]
		}
	],
	"textures":[
		{
			"sampler":0,
			"source":0
		}
	],
	"images":[
		{
			"mimeType":"image/png",
			"name":"eq_project_metal_warm.png",
			"uri":"evilquest-shared-textures/eq_project_metal_warm.png"
		}
	],
	"accessors":[
		{
			"bufferView":0,
			"componentType":5126,
			"count":132,
			"max":[
				3.4756546020507812,
				-5.0998511142097414e-05,
				0.01758652552962303
			],
			"min":[
				-3.580244302749634,
				-6.005123138427734,
				-0.35649004578590393
			],
			"type":"VEC3"
		},
		{
			"bufferView":1,
			"componentType":5126,
			"count":132,
			"type":"VEC3"
		},
		{
			"bufferView":2,
			"componentType":5126,
			"count":132,
			"type":"VEC2"
		},
		{
			"bufferView":3,
			"componentType":5123,
			"count":318,
			"type":"SCALAR"
		},
		{
			"bufferView":4,
			"componentType":5126,
			"count":543,
			"max":[
				3.4756546020507812,
				-5.0998511142097414e-05,
				0.01758652552962303
			],
			"min":[
				-3.580244302749634,
				-6.533615589141846,
				-0.35649004578590393
			],
			"type":"VEC3"
		},
		{
			"bufferView":5,
			"componentType":5126,
			"count":543,
			"type":"VEC3"
		},
		{
			"bufferView":6,
			"componentType":5126,
			"count":543,
			"type":"VEC2"
		},
		{
			"bufferView":7,
			"componentType":5123,
			"count":777,
			"type":"SCALAR"
		},
		{
			"bufferView":8,
			"componentType":5126,
			"count":87,
			"max":[
				3.4756546020507812,
				-5.1531216740841046e-05,
				0.01758652552962303
			],
			"min":[
				-3.580244302749634,
				-6.533615589141846,
				-0.35649004578590393
			],
			"type":"VEC3"
		},
		{
			"bufferView":9,
			"componentType":5126,
			"count":87,
			"type":"VEC3"
		},
		{
			"bufferView":10,
			"componentType":5126,
			"count":87,
			"type":"VEC2"
		},
		{
			"bufferView":11,
			"componentType":5123,
			"count":93,
			"type":"SCALAR"
		}
	],
	"bufferViews":[
		{
			"buffer":0,
			"byteLength":1584,
			"byteOffset":0,
			"target":34962
		},
		{
			"buffer":0,
			"byteLength":1584,
			"byteOffset":1584,
			"target":34962
		},
		{
			"buffer":0,
			"byteLength":1056,
			"byteOffset":3168,
			"target":34962
		},
		{
			"buffer":0,
			"byteLength":636,
			"byteOffset":4224,
			"target":34963
		},
		{
			"buffer":0,
			"byteLength":6516,
			"byteOffset":4860,
			"target":34962
		},
		{
			"buffer":0,
			"byteLength":6516,
			"byteOffset":11376,
			"target":34962
		},
		{
			"buffer":0,
			"byteLength":4344,
			"byteOffset":17892,
			"target":34962
		},
		{
			"buffer":0,
			"byteLength":1554,
			"byteOffset":22236,
			"target":34963
		},
		{
			"buffer":0,
			"byteLength":1044,
			"byteOffset":23792,
			"target":34962
		},
		{
			"buffer":0,
			"byteLength":1044,
			"byteOffset":24836,
			"target":34962
		},
		{
			"buffer":0,
			"byteLength":696,
			"byteOffset":25880,
			"target":34962
		},
		{
			"buffer":0,
			"byteLength":186,
			"byteOffset":26576,
			"target":34963
		}
	],
	"samplers":[
		{
			"magFilter":9729,
			"minFilter":9987
		}
	],
	"buffers":[
		{
			"byteLength":26764,
			"uri":"Gate_Variant_2.bin"
		}
	]
}
